<svg width="100" height="100" viewBox="0 0 100 100" fill="none" xmlns="http://www.w3.org/2000/svg">
<path d="M70.2095 0H29.7905C13.364 0 0 13.364 0 29.7905V70.2095C0 86.636 13.364 100 29.7905 100H70.2095C86.636 100 100 86.636 100 70.2095V29.7905C99.9998 13.364 86.6359 0 70.2095 0ZM89.94 70.2095C89.94 81.1062 81.1062 89.94 70.2095 89.94H29.7905C18.8938 89.94 10.06 81.1062 10.06 70.2095V29.7905C10.06 18.8936 18.8938 10.06 29.7905 10.06H70.2095C81.1062 10.06 89.94 18.8936 89.94 29.7905V70.2095Z" fill="#141F85"/>
<path d="M49.9998 24.1364C35.7386 24.1364 24.1362 35.7388 24.1362 49.9998C24.1362 64.2608 35.7386 75.8634 49.9998 75.8634C64.261 75.8634 75.8633 64.261 75.8633 49.9998C75.8633 35.7386 64.261 24.1364 49.9998 24.1364ZM49.9998 65.8036C41.2717 65.8036 34.1962 58.7281 34.1962 50C34.1962 41.2719 41.2718 34.1964 49.9998 34.1964C58.7279 34.1964 65.8033 41.2719 65.8033 50C65.8033 58.728 58.7277 65.8036 49.9998 65.8036Z" fill="#141F85"/>
<path d="M75.9131 30.5282C79.3357 30.5282 82.1103 27.7536 82.1103 24.331C82.1103 20.9083 79.3357 18.1337 75.9131 18.1337C72.4904 18.1337 69.7158 20.9083 69.7158 24.331C69.7158 27.7536 72.4904 30.5282 75.9131 30.5282Z" fill="#141F85"/>
</svg>
