<svg width="92" height="92" viewBox="0 0 92 92" fill="none" xmlns="http://www.w3.org/2000/svg">
<path d="M64.5927 0H27.4073C12.2949 0 0 12.2949 0 27.4073V64.5927C0 79.7051 12.2949 92 27.4073 92H64.5927C79.7051 92 92 79.7051 92 64.5927V27.4073C91.9998 12.2949 79.705 0 64.5927 0ZM82.7448 64.5927C82.7448 74.6177 74.6177 82.7448 64.5927 82.7448H27.4073C17.3823 82.7448 9.2552 74.6177 9.2552 64.5927V27.4073C9.2552 17.3821 17.3823 9.2552 27.4073 9.2552H64.5927C74.6177 9.2552 82.7448 17.3821 82.7448 27.4073V64.5927Z" fill="white"/>
<path d="M45.9998 22.2056C32.8795 22.2056 22.2053 32.8798 22.2053 45.9999C22.2053 59.12 32.8795 69.7944 45.9998 69.7944C59.1201 69.7944 69.7942 59.1202 69.7942 45.9999C69.7942 32.8796 59.1201 22.2056 45.9998 22.2056ZM45.9998 60.5394C37.97 60.5394 31.4605 54.0299 31.4605 46.0001C31.4605 37.9702 37.9701 31.4608 45.9998 31.4608C54.0297 31.4608 60.539 37.9702 60.539 46.0001C60.539 54.0298 54.0295 60.5394 45.9998 60.5394Z" fill="white"/>
<path d="M69.84 28.086C72.9888 28.086 75.5415 25.5334 75.5415 22.3846C75.5415 19.2357 72.9888 16.6831 69.84 16.6831C66.6912 16.6831 64.1385 19.2357 64.1385 22.3846C64.1385 25.5334 66.6912 28.086 69.84 28.086Z" fill="white"/>
</svg>
