<svg width="100" height="82" viewBox="0 0 100 82" fill="none" xmlns="http://www.w3.org/2000/svg">
<path d="M97.734 9.44883C96.1631 10.1455 94.5479 10.7336 92.8975 11.2111C94.8514 9.00137 96.3411 6.40137 97.2505 3.55625C97.4544 2.91855 97.243 2.22051 96.7188 1.80332C96.1952 1.38594 95.4678 1.33594 94.8915 1.67754C91.3866 3.75625 87.6053 5.25019 83.6405 6.12363C79.6466 2.22109 74.2221 0 68.6143 0C56.7772 0 47.1469 9.63008 47.1469 21.4668C47.1469 22.399 47.2059 23.3262 47.3227 24.2404C32.6341 22.9508 18.9782 15.7311 9.60086 4.22812C9.26668 3.81816 8.75184 3.59707 8.22469 3.63945C7.69735 3.68066 7.22332 3.97812 6.95692 4.43535C5.05497 7.69883 4.0495 11.4314 4.0495 15.2293C4.0495 20.4019 5.89618 25.3096 9.15848 29.1445C8.16649 28.801 7.20399 28.3717 6.28524 27.8617C5.79208 27.5871 5.19012 27.5914 4.70008 27.8723C4.20985 28.1533 3.90243 28.6699 3.88934 29.2348C3.887 29.3299 3.887 29.425 3.887 29.5215C3.887 37.2424 8.04247 44.1937 14.3958 47.9824C13.8499 47.9279 13.3046 47.8488 12.7626 47.7453C12.2038 47.6385 11.6294 47.8344 11.2526 48.2605C10.8753 48.6863 10.7503 49.2799 10.9243 49.8219C13.2759 57.1639 19.3304 62.564 26.6497 64.2105C20.579 68.0129 13.6368 70.0045 6.34911 70.0045C4.8284 70.0045 3.29911 69.9152 1.80243 69.7381C1.05887 69.6496 0.347936 70.0887 0.0946155 70.7959C-0.158705 71.5033 0.10985 72.292 0.742272 72.6974C10.1046 78.7004 20.93 81.8732 32.0477 81.8732C53.9038 81.8732 67.5764 71.5668 75.1973 62.9207C84.7007 52.1396 90.1508 37.8697 90.1508 23.7701C90.1508 23.181 90.1419 22.5863 90.1237 21.9934C93.8731 19.1685 97.101 15.7498 99.7278 11.8205C100.127 11.2238 100.084 10.435 99.6214 9.88574C99.1602 9.33555 98.3907 9.15781 97.734 9.44883Z" fill="#141F85"/>
</svg>
